<?xml version="1.0" encoding="utf-8"?>
<!-- Generator: Adobe Illustrator 23.0.5, SVG Export Plug-In . SVG Version: 6.00 Build 0)  -->
<svg version="1.1" id="Layer_1" xmlns="http://www.w3.org/2000/svg" xmlns:xlink="http://www.w3.org/1999/xlink" x="0px" y="0px"
	 viewBox="0 0 492.63 85.71" style="enable-background:new 0 0 492.63 85.71;" xml:space="preserve">
<style type="text/css">
	.st0{fill:url(#SVGID_1_);}
	.st1{fill:url(#SVGID_2_);}
	.st2{fill:url(#SVGID_3_);}
	.st3{fill:url(#SVGID_4_);}
	.st4{fill:url(#SVGID_5_);}
	.st5{fill:url(#SVGID_6_);}
	.st6{fill:#FFFFFF;}
</style>
<g>
	<g>
		<g>
			<g>
				<path class="st6" d="M58.82,66.17c-4.54,3.12-10.05,4.95-15.97,4.95c-5.65,0-10.93-1.68-15.36-4.55
					c-2.66,3.4-4.24,7.67-4.24,12.3c0,0.72,0.04,1.44,0.11,2.14c5.85,3,12.47,4.7,19.5,4.7c7.4,0,14.36-1.88,20.44-5.2
					c2.88-1.57,5.56-3.46,8-5.63c-0.77-5.41-3.06-10.32-6.45-14.3C63.13,62.73,61.09,64.61,58.82,66.17z"/>
				<path class="st6" d="M42.86,0C19.22,0,0,19.22,0,42.86c0,2.69,0.25,5.32,0.73,7.87c3.85-5.8,8.85-10.78,14.67-14.59
					c3.02-12.36,14.19-21.55,27.46-21.55c13.01,0,24.01,8.84,27.27,20.85c0.65,2.36,0.99,4.86,0.99,7.42c0,1.1-0.06,2.2-0.19,3.27
					c4.61,3.89,8.4,8.74,11.03,14.24c1.51-3.36,2.61-6.96,3.21-10.71c0.36-2.22,0.54-4.5,0.54-6.81C85.71,19.22,66.49,0,42.86,0z"/>
				<path class="st6" d="M43.31,50.61c5.65,0,10.93,1.68,15.36,4.55c2.66-3.4,4.24-7.67,4.24-12.3c0-0.72-0.04-1.44-0.11-2.14
					c-5.85-3-12.47-4.7-19.5-4.7c-7.4,0-14.36,1.88-20.44,5.2c-2.88,1.57-5.56,3.46-8,5.63c-4.51,4-8.17,8.95-10.67,14.52
					c2.64,5.5,6.42,10.35,11.03,14.24c0.63-5.43,2.81-10.41,6.08-14.46c1.72-2.13,3.76-4.02,6.03-5.58
					C31.89,52.44,37.4,50.61,43.31,50.61z"/>
			</g>
		</g>
		<g>
			<path class="st6" d="M143.29,15.09v8.5H120.4v14.4h17.46v8.5H120.4V70h-11.09V15.09H143.29z"/>
			<path class="st6" d="M192.06,51.82h-31.78c0.26,2.83,1.31,5.11,3.15,6.84c1.83,1.73,4.17,2.6,7,2.6c2.2,0,3.96-0.42,5.27-1.26
				c1.31-0.84,2.39-1.99,3.22-3.46h11.96c-1.26,4.14-3.7,7.53-7.32,10.15c-3.62,2.62-8,3.93-13.14,3.93
				c-4.14,0-7.84-0.93-11.09-2.79c-3.25-1.86-5.8-4.48-7.63-7.87c-1.84-3.38-2.75-7.33-2.75-11.84c0-4.51,0.92-8.44,2.75-11.8
				c1.83-3.36,4.39-5.95,7.67-7.79c3.28-1.84,7.01-2.75,11.21-2.75c4.2,0,7.93,0.89,11.21,2.67c3.28,1.78,5.86,4.31,7.75,7.59
				c1.89,3.28,2.83,7.12,2.83,11.52C192.38,49.1,192.27,50.51,192.06,51.82z M180.89,44.67c-0.16-2.88-1.22-5.19-3.19-6.92
				c-1.97-1.73-4.39-2.6-7.28-2.6c-2.67,0-4.94,0.87-6.8,2.6c-1.86,1.73-2.98,4.04-3.34,6.92H180.89z"/>
			<path class="st6" d="M221.64,47.73L235.72,70h-12.43l-8.34-13.14L206.93,70h-11.17l14.08-21.24l-14.08-22.34h12.43l8.34,13.22
				l8.02-13.22h11.25L221.64,47.73z"/>
			<path class="st6" d="M267.58,27.75c2.41,1.31,4.35,3.12,5.82,5.43v-6.77h11.01V70H273.4v-7.32c-1.52,2.47-3.47,4.41-5.86,5.82
				c-2.39,1.42-5.13,2.12-8.22,2.12c-3.72,0-7.12-0.96-10.19-2.87c-3.07-1.91-5.51-4.57-7.32-7.98c-1.81-3.41-2.71-7.29-2.71-11.64
				c0-4.35,0.9-8.22,2.71-11.6c1.81-3.38,4.25-6.02,7.32-7.91c3.07-1.89,6.46-2.83,10.19-2.83
				C262.41,25.79,265.16,26.44,267.58,27.75z M256.29,36.88c-1.76,1-3.19,2.45-4.29,4.37c-1.1,1.91-1.65,4.21-1.65,6.88
				s0.55,5,1.65,6.96c1.1,1.97,2.53,3.45,4.29,4.44c1.76,1,3.6,1.49,5.55,1.49c1.99,0,3.87-0.5,5.62-1.49
				c1.76-1,3.19-2.46,4.29-4.41c1.1-1.94,1.65-4.25,1.65-6.92c0-2.67-0.55-4.98-1.65-6.92c-1.1-1.94-2.53-3.41-4.29-4.41
				c-1.76-1-3.63-1.49-5.62-1.49C259.89,35.38,258.04,35.88,256.29,36.88z"/>
			<path class="st6" d="M324.06,29.6c3.2,2.54,4.9,5.99,5.11,10.34h-11.33c-0.31-3.67-2.57-5.51-6.76-5.51
				c-2.1,0-3.72,0.42-4.88,1.26c-1.15,0.84-1.73,1.94-1.73,3.3c0,1.15,0.42,2.07,1.26,2.75c0.84,0.68,1.87,1.22,3.11,1.61
				c1.23,0.39,3,0.85,5.31,1.38c3.2,0.68,5.83,1.4,7.9,2.16c2.07,0.76,3.84,1.97,5.31,3.62c1.47,1.65,2.2,3.92,2.2,6.8
				c0,2.62-0.76,4.93-2.28,6.92c-1.52,1.99-3.62,3.55-6.29,4.68s-5.69,1.69-9.05,1.69c-5.24,0-9.52-1.22-12.82-3.66
				c-3.3-2.44-5.11-5.94-5.43-10.5h11.33c0.21,1.78,0.92,3.15,2.12,4.09c1.21,0.94,2.83,1.42,4.88,1.42c2.04,0,3.7-0.46,4.96-1.38
				c1.26-0.92,1.89-2.08,1.89-3.5c0-1.15-0.42-2.08-1.26-2.79c-0.84-0.71-1.89-1.26-3.15-1.65c-1.26-0.39-3.07-0.85-5.43-1.38
				c-3.2-0.68-5.81-1.39-7.83-2.12c-2.02-0.73-3.76-1.9-5.23-3.5c-1.47-1.6-2.2-3.76-2.2-6.49c0-2.41,0.71-4.64,2.12-6.69
				c1.42-2.04,3.49-3.67,6.21-4.88c2.73-1.21,5.95-1.81,9.68-1.81C316.77,25.79,320.86,27.06,324.06,29.6z"/>
			<path class="st6" d="M361.18,60.71V70h-7c-4.46,0-7.89-1.02-10.3-3.07c-2.41-2.05-3.62-5.43-3.62-10.15V35.46h-4.64v-9.05h4.64
				V15.64h11.09v10.78h9.75v9.05h-9.75v21.32c0,1.42,0.34,2.43,1.02,3.03c0.68,0.6,1.86,0.9,3.54,0.9H361.18z"/>
			<path class="st6" d="M400.67,28.54c3.41,1.84,6.11,4.44,8.1,7.83c1.99,3.38,2.99,7.3,2.99,11.76c0,4.46-1,8.39-2.99,11.8
				c-1.99,3.41-4.71,6.04-8.14,7.91c-3.44,1.86-7.25,2.79-11.45,2.79c-4.14,0-7.92-0.93-11.33-2.79c-3.41-1.86-6.1-4.5-8.06-7.91
				c-1.97-3.41-2.95-7.34-2.95-11.8c0-4.46,1-8.38,2.99-11.76c1.99-3.38,4.69-5.99,8.1-7.83c3.41-1.84,7.21-2.75,11.41-2.75
				C393.49,25.79,397.26,26.71,400.67,28.54z M381.32,38.53c-2.15,2.26-3.23,5.48-3.23,9.68c0,2.83,0.51,5.23,1.53,7.2
				c1.02,1.97,2.37,3.44,4.05,4.41c1.68,0.97,3.51,1.46,5.51,1.46c1.94,0,3.78-0.5,5.51-1.49c1.73-1,3.13-2.48,4.21-4.44
				c1.07-1.97,1.61-4.34,1.61-7.12c0-2.83-0.52-5.23-1.57-7.2c-1.05-1.97-2.43-3.43-4.13-4.4c-1.7-0.97-3.55-1.46-5.55-1.46
				C386.12,35.15,383.47,36.28,381.32,38.53z"/>
			<path class="st6" d="M436.97,27.99c2.18-1.47,4.65-2.2,7.43-2.2v11.33h-2.75c-3.3,0-5.8,0.83-7.47,2.48
				c-1.68,1.65-2.52,4.5-2.52,8.53V70h-11.09V26.42h11.09v7.71C433.03,31.5,434.8,29.46,436.97,27.99z"/>
			<path class="st6" d="M492.31,51.82h-31.78c0.26,2.83,1.31,5.11,3.15,6.84c1.83,1.73,4.17,2.6,7,2.6c2.2,0,3.96-0.42,5.27-1.26
				c1.31-0.84,2.39-1.99,3.23-3.46h11.96c-1.26,4.14-3.7,7.53-7.32,10.15c-3.62,2.62-8,3.93-13.14,3.93
				c-4.14,0-7.84-0.93-11.09-2.79c-3.25-1.86-5.8-4.48-7.63-7.87c-1.84-3.38-2.75-7.33-2.75-11.84c0-4.51,0.92-8.44,2.75-11.8
				c1.83-3.36,4.39-5.95,7.67-7.79c3.28-1.84,7.01-2.75,11.21-2.75c4.2,0,7.93,0.89,11.21,2.67c3.28,1.78,5.86,4.31,7.75,7.59
				c1.89,3.28,2.83,7.12,2.83,11.52C492.63,49.1,492.52,50.51,492.31,51.82z M481.14,44.67c-0.16-2.88-1.22-5.19-3.19-6.92
				c-1.97-1.73-4.39-2.6-7.28-2.6c-2.68,0-4.94,0.87-6.8,2.6c-1.86,1.73-2.98,4.04-3.34,6.92H481.14z"/>
		</g>
	</g>
</g>
</svg>
