<?xml version="1.0" encoding="utf-8"?>
<!-- Generator: Adobe Illustrator 27.0.0, SVG Export Plug-In . SVG Version: 6.00 Build 0)  -->
<svg version="1.1" id="Layer_1" xmlns="http://www.w3.org/2000/svg" xmlns:xlink="http://www.w3.org/1999/xlink" x="0px" y="0px"
	 viewBox="0 0 908.25 257.81" style="enable-background:new 0 0 908.25 257.81;" xml:space="preserve">
<style type="text/css">
	.st0{fill:#F4F7FF;}
	.st1{fill:url(#SVGID_1_);}
	.st2{fill:url(#SVGID_00000177456927833258272870000012336918856035395986_);}
	.st3{fill:url(#SVGID_00000018932068348478324930000005496408469485511326_);}
	.st4{fill:url(#SVGID_00000124160696343751719780000014038203024732358307_);}
	.st5{fill:url(#SVGID_00000100373641266957057880000007361937273095853201_);}
	.st6{fill:#1D0B55;}
	.st7{fill:url(#SVGID_00000124158314571266646950000014207183408529369255_);}
	.st8{fill:url(#SVGID_00000071533825382230948660000009893828026567919749_);}
	.st9{fill:url(#SVGID_00000067954442991854232800000016759358444288305831_);}
	.st10{fill:url(#SVGID_00000003085696681872349450000008454750586389709739_);}
	.st11{fill:url(#SVGID_00000080913599290757489590000018203473338651839675_);}
</style>
<g>
	<g>
		<g>
			<path class="st6" d="M308.27,218.11V81.43h63.93c29.71,0,45.9,20.08,45.9,44.06c0,23.77-16.39,43.85-45.9,43.85h-34.84v48.77
				H308.27z M388.39,125.49c0-11.47-8.81-18.44-20.29-18.44h-30.74v36.68h30.74C379.58,143.72,388.39,136.76,388.39,125.49z"/>
			<path class="st6" d="M500.27,218.11V205.4c-7.79,9.84-18.44,15.16-30.53,15.16c-24.8,0-43.85-18.85-43.85-52.05
				c0-32.17,18.65-51.84,43.85-51.84c11.68,0,22.54,4.92,30.53,15.16v-12.71h26.23v98.97H500.27z M500.27,186.14v-34.84
				c-4.3-6.56-13.73-11.48-22.34-11.48c-14.96,0-25.2,11.68-25.2,28.69c0,17.21,10.25,28.89,25.2,28.89
				C486.54,197.41,495.97,192.7,500.27,186.14z"/>
			<path class="st6" d="M619.12,218.11v-59.84c0-13.73-7.17-18.44-18.24-18.44c-10.25,0-18.03,5.74-22.54,11.48v66.8h-26.02v-98.97
				h26.02v12.71c6.35-7.38,18.65-15.16,34.63-15.16c21.93,0,32.38,12.29,32.38,31.56v69.88H619.12z"/>
			<path class="st6" d="M676.29,193.31v-51.43H659.9v-22.75h16.39V92.09h26.02v27.05h20.08v22.75h-20.08v44.47
				c0,6.35,3.28,11.07,9.02,11.07c3.89,0,7.58-1.43,9.02-3.07l5.53,19.88c-3.89,3.48-10.86,6.35-21.72,6.35
				C685.92,220.57,676.29,211.14,676.29,193.31z"/>
			<path class="st6" d="M740.23,218.11v-98.97h26.02v13.32c7.17-8.61,19.26-15.78,31.56-15.78v25.41c-1.84-0.41-4.1-0.61-7.17-0.61
				c-8.61,0-20.08,4.92-24.38,11.27v65.37H740.23z"/>
			<path class="st6" d="M882.02,218.11V205.4c-7.79,9.84-18.44,15.16-30.53,15.16c-24.8,0-43.85-18.85-43.85-52.05
				c0-32.17,18.65-51.84,43.85-51.84c11.68,0,22.54,4.92,30.53,15.16v-12.71h26.23v98.97H882.02z M882.02,186.14v-34.84
				c-4.3-6.56-13.73-11.48-22.34-11.48c-14.96,0-25.2,11.68-25.2,28.69c0,17.21,10.25,28.89,25.2,28.89
				C868.29,197.41,877.72,192.7,882.02,186.14z"/>
		</g>
	</g>
	<g>
		<linearGradient id="SVGID_1_" gradientUnits="userSpaceOnUse" x1="50.8432" y1="252.2671" x2="184.0863" y2="0.2638">
			<stop  offset="5.586592e-03" style="stop-color:#A020F0"/>
			<stop  offset="1" style="stop-color:#FF66CC"/>
		</linearGradient>
		<path class="st1" d="M121.5,207.85c49.18,0,89.19-40.02,89.19-89.2s-40.01-89.2-89.19-89.2c-49.19,0-89.2,40.02-89.2,89.2h17.2
			c0-39.7,32.3-72,72-72c39.7,0,71.99,32.3,71.99,72s-32.3,72-71.99,72c-10.92,0-21.4-2.38-31.17-7.07l-5.49-2.64l-35.35,35.35
			v-97.64h-17.2v139.16l56.24-56.24C99,205.74,110.06,207.85,121.5,207.85z"/>
		
			<linearGradient id="SVGID_00000005951678330986757140000000466641559754751120_" gradientUnits="userSpaceOnUse" x1="112.6585" y1="284.951" x2="245.9016" y2="32.9478">
			<stop  offset="5.586592e-03" style="stop-color:#A020F0"/>
			<stop  offset="1" style="stop-color:#FF66CC"/>
		</linearGradient>
		<path style="fill:url(#SVGID_00000005951678330986757140000000466641559754751120_);" d="M230.12,149.96
			c-1.34-0.74-2.84-1.09-4.42-1.11c-7.69-0.11-17.56,7.57-22.9,17.32c-5.44,9.94-3.86,17.83,1.48,22.64
			c-20.16,23.76-50.2,38.43-82.78,38.43c-12.49,0-24.63-2.08-36.22-6.19l-5.93,5.93c13.41,5.26,27.58,7.9,42.16,7.9
			c35.4,0,67.99-16.18,89.58-42.3c7,2.08,14.63-0.79,20.14-10.86c5.63-10.28,6.57-23.56,1.5-29.61
			C231.98,151.23,231.12,150.5,230.12,149.96z"/>
		
			<linearGradient id="SVGID_00000079464246303236971680000010602277063559752849_" gradientUnits="userSpaceOnUse" x1="52.3641" y1="253.0713" x2="185.6072" y2="1.068">
			<stop  offset="5.586592e-03" style="stop-color:#A020F0"/>
			<stop  offset="1" style="stop-color:#FF66CC"/>
		</linearGradient>
		<path style="fill:url(#SVGID_00000079464246303236971680000010602277063559752849_);" d="M61.22,5.95
			c4.49,2.62,8.85,4.88,13.06,6.84c3.42,1.6,6.75,2.98,9.98,4.19c35.86,13.44,59.24,4.45,63.97,2.29c0.54-0.24,0.88-0.79,0.87-1.39
			l-0.06-3.96c3.94,1.03,7.78,2.28,11.52,3.75c40.53,15.7,69.35,55.12,69.35,101.14c0,6.38-0.55,12.64-1.62,18.73
			c2.61,0.32,5.07,1.12,7.34,2.36c1.27-6.84,1.93-13.89,1.93-21.09c0-50.34-32.22-93.31-77.13-109.34c-3.75-1.35-7.6-2.5-11.51-3.44
			l-0.07-4.56c-0.02-0.93-0.85-1.61-1.76-1.45L61.97,3.15C60.45,3.17,59.91,5.18,61.22,5.95z"/>
		
			<linearGradient id="SVGID_00000132808707207082526280000004425369217473112986_" gradientUnits="userSpaceOnUse" x1="-27.7672" y1="210.703" x2="105.4759" y2="-41.3003">
			<stop  offset="5.586592e-03" style="stop-color:#A020F0"/>
			<stop  offset="1" style="stop-color:#FF66CC"/>
		</linearGradient>
		<path style="fill:url(#SVGID_00000132808707207082526280000004425369217473112986_);" d="M13.86,131.7
			c-0.01,0-0.02-0.01-0.03-0.01c-0.51-4.21-0.76-8.51-0.76-12.87c0-41.15,23.05-77.02,56.92-95.38c-2.74-1.26-5.48-2.63-8.24-4.09
			C28.03,39.67,5.42,76.65,5.42,118.82c0,4.62,0.28,9.18,0.81,13.66c-4.34,2.41-7.23,8.08-5.91,14.06l5.81,22.31
			c0.21,0.78,0.86,1.3,1.5,1.17l0.58-0.13c0.65-0.14,1.04-0.93,0.86-1.75l-4.11-18.85c-0.17-0.82,0.22-1.61,0.87-1.75l1.04-0.22
			c0.65-0.14,1.33,0.4,1.51,1.22l4.11,18.85c0.17,0.82,0.86,1.38,1.51,1.23l0.24-0.05c0.23-0.05,0.42-0.18,0.57-0.36
			c0.28-0.34,0.39-0.86,0.29-1.39l-0.74-3.36l-3.37-15.5c-0.18-0.82,0.21-1.6,0.86-1.75l1.04-0.22c0.19-0.05,0.39-0.03,0.58,0.05
			c0.43,0.16,0.8,0.6,0.93,1.18l4.11,18.86c0.18,0.83,0.85,1.38,1.51,1.23l0.23-0.06c0.23-0.05,0.42-0.18,0.57-0.36
			c0.28-0.32,0.41-0.84,0.3-1.38l-1.07-4.9l-2.07-9.54l-0.97-4.41c-0.18-0.82,0.2-1.61,0.86-1.75l1.03-0.24
			c0.66-0.13,1.34,0.42,1.52,1.24l4.11,18.85c0.15,0.72,0.69,1.22,1.25,1.24c0.09,0.01,0.17,0,0.26-0.01c0.62-0.13,1-0.84,0.89-1.61
			l-3.34-22.6C22.46,136.65,18.25,132.91,13.86,131.7z"/>
		
			<linearGradient id="SVGID_00000128477454682846648030000010016471837436336297_" gradientUnits="userSpaceOnUse" x1="51.0967" y1="252.4012" x2="184.3399" y2="0.3979">
			<stop  offset="5.586592e-03" style="stop-color:#A020F0"/>
			<stop  offset="1" style="stop-color:#FF66CC"/>
		</linearGradient>
		<circle style="fill:url(#SVGID_00000128477454682846648030000010016471837436336297_);" cx="121.49" cy="119.26" r="39.83"/>
	</g>
</g>
</svg>
